<svg height='300px' width='300px'  fill="#1A1A1A" xmlns="http://www.w3.org/2000/svg" xmlns:xlink="http://www.w3.org/1999/xlink" xmlns:sketch="http://www.bohemiancoding.com/sketch/ns" viewBox="0 0 24 24" version="1.1" x="0px" y="0px"><title>discount</title><desc>Created with Sketch.</desc><g stroke="none" stroke-width="1" fill="none" fill-rule="evenodd" sketch:type="MSPage"><g sketch:type="MSLayerGroup" fill="#1A1A1A"><path d="M7.5,4 C5.568,4 4,5.568 4,7.5 C4,9.432 5.568,11 7.5,11 C9.432,11 11,9.432 11,7.5 C11,5.568 9.432,4 7.5,4 Z M7.5,6 C6.672,6 6,6.672 6,7.5 C6,8.328 6.672,9 7.5,9 C8.328,9 9,8.328 9,7.5 C9,6.672 8.328,6 7.5,6 Z M16.5,13 C14.568,13 13,14.568 13,16.5 C13,18.432 14.568,20 16.5,20 C18.432,20 20,18.432 20,16.5 C20,14.568 18.432,13 16.5,13 Z M16.5,15 C15.672,15 15,15.672 15,16.5 C15,17.328 15.672,18 16.5,18 C17.328,18 18,17.328 18,16.5 C18,15.672 17.328,15 16.5,15 Z M6.33734967,19.0768639 C5.95002647,19.4641871 5.32217914,19.4643148 4.92893219,19.0710678 C4.5384079,18.6805435 4.54377507,18.0420114 4.92313611,17.6626503 L17.6626503,4.92313611 C18.0499735,4.5358129 18.6778209,4.53568523 19.0710678,4.92893219 C19.4615921,5.31945648 19.4562249,5.95798863 19.0768639,6.33734967 L6.33734967,19.0768639 Z" sketch:type="MSShapeGroup"></path></g></g></svg>